<svg width="100%" height="100%" viewBox="0 0 47 297" version="1.1" xmlns="http://www.w3.org/2000/svg" xmlns:xlink="http://www.w3.org/1999/xlink" xml:space="preserve" xmlns:serif="http://www.serif.com/" style="fill-rule:evenodd;clip-rule:evenodd;stroke-linejoin:round;stroke-miterlimit:2;">
    <g id="black-key" serif:id="black key">
        <path d="M46.875,2.344c0,-1.294 -1.05,-2.344 -2.344,-2.344l-42.187,0c-1.294,0 -2.344,1.05 -2.344,2.344l-0,292.187c-0,1.294 1.05,2.344 2.344,2.344l42.187,-0c1.294,-0 2.344,-1.05 2.344,-2.344l0,-292.187Z" style="fill:#170b0b;"/>
        <path d="M46.875,2.344c0,-1.294 -1.05,-2.344 -2.344,-2.344l-42.187,0c-1.294,0 -2.344,1.05 -2.344,2.344l-0,292.187c-0,1.294 1.05,2.344 2.344,2.344l42.187,-0c1.294,-0 2.344,-1.05 2.344,-2.344l0,-292.187Zm-1.949,-0l-0,292.187c-0,0.218 -0.177,0.395 -0.395,0.395c0,-0 -42.187,-0 -42.187,-0c-0.218,-0 -0.395,-0.177 -0.395,-0.395l0,-292.187c0,-0.218 0.177,-0.395 0.395,-0.395l42.187,0c0.218,0 0.395,0.177 0.395,0.395Z"/>
        <path d="M43.192,1.875c-0,-1.035 -0.84,-1.875 -1.875,-1.875l-33.75,0c-1.035,0 -1.875,0.84 -1.875,1.875l-0,246.25c-0,1.035 0.84,1.875 1.875,1.875l33.75,0c1.035,0 1.875,-0.84 1.875,-1.875l-0,-246.25Z" style="fill:#333;"/>
        <path d="M43.192,1.875c-0,-1.035 -0.84,-1.875 -1.875,-1.875l-33.75,0c-1.035,0 -1.875,0.84 -1.875,1.875l-0,246.25c-0,1.035 0.84,1.875 1.875,1.875l33.75,0c1.035,0 1.875,-0.84 1.875,-1.875l-0,-246.25Zm-1.607,0l-0,246.25c-0,0.148 -0.12,0.268 -0.268,0.268c-0,0 -33.75,0 -33.75,0c-0.148,0 -0.268,-0.12 -0.268,-0.268l-0,-246.25c-0,-0.148 0.12,-0.268 0.268,-0.268l33.75,-0c0.148,-0 0.268,0.12 0.268,0.268Z"/>
    </g>
</svg>
