<svg width="100%" height="100%" viewBox="0 0 63 469" version="1.1" xmlns="http://www.w3.org/2000/svg" xmlns:xlink="http://www.w3.org/1999/xlink" xml:space="preserve" xmlns:serif="http://www.serif.com/" style="fill-rule:evenodd;clip-rule:evenodd;stroke-linejoin:round;stroke-miterlimit:2;">
    <g>
        <path d="M62.5,459.375l0,-161.504l-13.281,-0c-1.294,-0 -2.344,-1.05 -2.344,-2.344l0,-292.187c0,-1.294 1.05,-2.344 2.344,-2.344l12.442,-0c-0.553,-0.594 -1.333,-0.972 -2.202,-0.995l-0.084,-0.001l-56.25,0l-0.084,0.001l-0.084,0.003l-0.083,0.006l-0.083,0.008l-0.082,0.009l-0.081,0.012l-0.081,0.014l-0.08,0.016l-0.079,0.019l-0.078,0.02l-0.078,0.022l-0.076,0.024l-0.076,0.025l-0.075,0.028l-0.074,0.03l-0.092,0.039l-0.068,0.032l-0.068,0.034l-0.067,0.035l-0.061,0.035c-0.114,0.065 -0.224,0.137 -0.329,0.216l-0.05,0.039l-0.058,0.047l-0.058,0.048l-0.056,0.05l-0.055,0.051l-0.053,0.053l-0.053,0.053l-0.024,0.027c-0.521,0.558 -0.839,1.306 -0.839,2.129l0,456.25c0,5.174 4.201,9.375 9.375,9.375l43.75,0c5.174,0 9.375,-4.201 9.375,-9.375Z" style="fill:#dbdbdb;"/>
        <path d="M3.164,0c-0.027,0.351 -0.074,0.703 -0.101,0.894l-0.021,0.135l-0.002,-0.162c0.028,-0.196 0.071,-0.532 0.096,-0.867l-0.011,0l-0.553,0.049l-0.567,0.158l-0.43,0.205l-0.495,0.35l-0.241,0.234c-0.173,0.185 -0.323,0.391 -0.447,0.614c0.176,0.159 0.353,0.276 0.442,0.331l0.003,0.004l0.026,0.063l-0.027,-0.064c-0.09,-0.053 -0.27,-0.168 -0.448,-0.326c-0.247,0.447 -0.388,0.961 -0.388,1.507l-0,456.25c-0,5.174 4.201,9.375 9.375,9.375l43.75,0c5.174,0 9.375,-4.201 9.375,-9.375l0,-161.504l-13.281,-0c-1.294,-0 -2.344,-1.05 -2.344,-2.344l0,-292.187c0,-1.294 1.05,-2.344 2.344,-2.344l12.442,-0c-0.553,-0.594 -1.333,-0.972 -2.202,-0.995l-0.084,-0.001l-56.211,0Zm-0.039,1.039l43.616,-0c-0.561,0.603 -0.905,1.412 -0.905,2.301l0,292.187c0,1.867 1.516,3.382 3.383,3.382c-0,0 12.242,0 12.242,0c0,0 0,160.466 0,160.466c0,4.601 -3.735,8.336 -8.336,8.336c-0,0 -43.75,0 -43.75,0c-4.601,0 -8.336,-3.735 -8.336,-8.336l-0,-456.25c-0,-0.549 0.212,-1.049 0.559,-1.421l-0.759,0.33c-0,0 0.784,-0.356 0.784,-0.356c-0,-0 -0.76,0.33 -0.76,0.33l0.764,-0.334l-0.147,0.061l0.154,-0.069l-0.682,0.287l0.692,-0.297l-0.75,0.321c-0,-0 0.764,-0.335 0.764,-0.335c0,-0 -0.742,0.312 -0.742,0.312l0.748,-0.318l-0.128,0.051l0.136,-0.058l-0.628,0.255l0.638,-0.265l-0.732,0.302l0.744,-0.314l-0.725,0.295l0.733,-0.302l-0.117,0.045l0.125,-0.052l-0.59,0.231l0.6,-0.24l-0.713,0.283c-0,0 0.724,-0.294 0.724,-0.294c0,-0 -0.707,0.278 -0.707,0.278l0.717,-0.286l-0.114,0.042l0.123,-0.05l-0.568,0.214l0.577,-0.222l-0.694,0.266l0.704,-0.275l-0.689,0.261l0.7,-0.271l-0.116,0.042l0.126,-0.05l-0.56,0.204l0.569,-0.211l-0.675,0.249l0.684,-0.257l-0.67,0.246l0.683,-0.256l-0.125,0.043l0.137,-0.052l-0.575,0.202l0.582,-0.208l-0.034,0.012l0.041,-0.018l-0.01,0.004c0.01,-0.005 0.018,-0.01 0.024,-0.015l-0.014,0.005l0.013,-0.007l0.007,-0.004l0.005,-0.002c0.066,-0.049 0.135,-0.096 0.207,-0.137c0.009,-0.006 0.018,-0.01 0.024,-0.014l-0.528,0.144l0.552,-0.157l-0.083,0.02l0.093,-0.026l-0.029,0.008l0.033,-0.01l-0.248,0.062l0.256,-0.066l-0.494,0.125l0.518,-0.138l-0.089,0.021l0.102,-0.028l-0.475,0.116l0.477,-0.116l-0.145,0.033l0.153,-0.037l-0.466,0.11l0.489,-0.122l-0.088,0.02l0.101,-0.026l-0.452,0.104l0.458,-0.106l-0.102,0.022l0.107,-0.025l-0.439,0.097l0.463,-0.108l-0.084,0.017l0.095,-0.022l-0.428,0.092l0.436,-0.096l-0.081,0.017l0.087,-0.019l-0.415,0.086l0.437,-0.096l-0.076,0.015l0.087,-0.019l-0.403,0.081l0.413,-0.085l-0.073,0.014l0.078,-0.017l-0.39,0.076l0.413,-0.085l-0.068,0.013l0.077,-0.016l-0.378,0.071l0.39,-0.076l-0.07,0.013l0.076,-0.015l-0.366,0.067l0.388,-0.075l-0.058,0.01l0.066,-0.013l-0.353,0.062l0.366,-0.067l-0.068,0.011l0.075,-0.013l-0.341,0.058l0.363,-0.066l-0.049,0.008l0.055,-0.01l-0.327,0.053l0.342,-0.058l-0.068,0.011l0.075,-0.013l-0.316,0.049l0.338,-0.056l-0.04,0.006l0.044,-0.007l-0.3,0.044l0.317,-0.049l-0.067,0.009l0.075,-0.012l-0.292,0.042l0.313,-0.048l-0.03,0.004l0.034,-0.005l-0.274,0.037l0.291,-0.041l-0.065,0.008l0.075,-0.011l-0.267,0.035l0.288,-0.04l-0.022,0.002l0.023,-0.003l-0.247,0.03l0.266,-0.034l-0.063,0.007l0.074,-0.01l-0.242,0.029l0.263,-0.034l-0.015,0.002l0.015,-0.002l-0.221,0.024l0.24,-0.028l-0.059,0.006l0.072,-0.009l-0.217,0.023l0.237,-0.027l-0.008,0.001l0.006,-0.001l-0.193,0.019l0.214,-0.022l-0.054,0.004l0.068,-0.007l-0.192,0.018l0.213,-0.021l-0.17,0.013l0.187,-0.016l-0.048,0.003l0.064,-0.006l-0.167,0.013l0.181,-0.015l-0.17,0.014l0.176,-0.015l-0.143,0.01l0.159,-0.012l-0.04,0.002l0.058,-0.005l-0.141,0.01l0.153,-0.011l-0.144,0.01l0.153,-0.011l-0.117,0.007l0.131,-0.009l-0.032,0.002l0.052,-0.004l-0.116,0.007l0.126,-0.008l-0.118,0.007l0.129,-0.008l-0.09,0.004l0.103,-0.005l-0.023,0.001l0.044,-0.003l-0.09,0.004l0.114,-0.005l-0.065,0.002l0.074,-0.003l-0.012,0l0.063,-0.002l-0.038,0.001l0.11,-0.002Zm-2.158,0.908l-0.075,0.031l0.075,-0.031Zm-0.075,0.03l-0.055,-0.032l0.055,0.032Zm-0.004,-0.013l0.003,0.008l-0.026,-0.101l-0.003,-0.002l0.026,0.095Zm-0.024,-0.097l0.001,0.004l0.021,0.014l0.03,0.069l-0.031,-0.073l-0.021,-0.014Zm0.213,0.004l-0.13,0.053l0.13,-0.053Zm-0.131,0.05l-0.06,-0.039l0.002,0.004l0.058,0.035Zm-0.005,-0.022l0.005,0.014l-0.024,-0.097l-0.004,-0.003l0.023,0.086Zm-0.001,-0.071l-0.003,-0.006l-0.016,-0.011l0.001,0.005l0.017,0.011l0.03,0.075l-0.029,-0.074Zm-0.002,-0.005l0.002,0.005l0.062,0.038l0.001,0.004l-0.002,-0.007l-0.063,-0.04Zm0.226,-0.016l-0.161,0.063l0.161,-0.063Zm-0.181,-0.044l0.016,0.072l0.025,0.016l-0.03,-0.08l-0.011,-0.008Zm0.009,0.003l0.002,0.005l0.065,0.042l0.002,0.005l-0.003,-0.008l-0.066,-0.044Zm0.235,-0.011l-0.166,0.063l0.166,-0.063Zm-0.164,0.059l-0.003,-0.001l0.003,0.001Zm-0.021,-0.104l0.017,0.077l0.021,0.014l-0.031,-0.086l-0.007,-0.005Zm0.079,0.057l-0.003,-0.007l-0.071,-0.049l0.002,0.004l0.07,0.047l0.002,0.005Zm0.002,-0.004l-0.003,-0.001l0.003,0.001Zm-0.02,-0.105l0.017,0.082l0.018,0.013l-0.035,-0.095Zm0.001,-0.001l0.001,0.003l0.076,0.053l0.001,0.004l-0.001,-0.005l-0.077,-0.055Zm0.098,0.052l0.422,-0.151l-0.439,0.157l0.017,-0.006Zm0.319,-0.119l-0.325,0.115l0.344,-0.121l-0.019,0.006Zm-0.433,-0.347l0.093,0.452l0.015,0.01l-0.031,-0.09l-0.099,-0.475l-0.005,-0.016l0.027,0.119Zm0.016,-0.26l0.142,0.684c-0.001,-0.009 -0.052,-0.309 -0.129,-0.668l-0.013,-0.016Zm0.142,0.683l-0.181,-0.532l0.001,0.006l0.18,0.526Zm-0.195,-0.595l0.008,0.037l0.187,0.558l-0.195,-0.595Zm0.031,-0.23l0.035,0.158c0.222,0.258 0.447,0.442 0.458,0.451l-0.035,-0.129l-0.006,-0.005c-0.113,-0.102 -0.294,-0.277 -0.455,-0.486l0.003,0.011Zm0.481,0.502l-0.02,-0.019l0.032,0.124l-0.012,-0.105Zm0.07,0.061l0.003,0.012l-0.004,-0.014l-0.069,-0.06l0.07,0.062Zm0.152,-0.027l0.156,-0.04l-0.299,0.076l0.143,-0.036Zm-0.15,-0.069l-0.004,-0.001l0.006,0.025l0.006,0.063l0.012,0.011l-0.018,-0.074l-0.002,-0.024Zm-0.001,-0.004l0.001,0.004l0.064,0.059l0.004,0.014l-0.005,-0.02l-0.064,-0.057Zm0.076,0.067l-0.008,-0.007l-0,0.005l0.009,0.008l-0.001,-0.006Zm0.002,-0.02l-0.004,-0.004l0.002,0.024l0.004,0.004l-0.002,-0.024Zm-0.005,-0.077l0.005,0.077l0.018,0.016l-0.023,-0.093Zm0.064,0.073l-0.006,-0.026l-0.058,-0.052l0.002,0.008l0.058,0.053l0.004,0.017Zm0.008,-0.012l-0.01,-0.01l0.001,0.008l0.01,0.01l-0.001,-0.008Zm0.005,-0.022l-0.007,-0.006l0.002,0.028l0.006,0.005l-0.001,-0.027Zm-0.004,-0.071l0.004,0.071l0.02,0.018l-0.019,-0.083l-0.005,-0.006Zm0.003,-0.005l0.002,0.011l0.05,0.047l0.004,0.02l-0,-0.016l-0.004,-0.004l-0.003,-0.012l-0.049,-0.046Zm0.067,0.063l-0.012,-0.011l0.001,0.01l0.011,0.011l-0,-0.01Zm0.006,-0.022l-0.008,-0.008l0.002,0.03l0.008,0.007l-0.002,-0.029Zm-0.003,-0.066l0.003,0.066l0.021,0.02l-0.017,-0.079l-0.007,-0.007Zm0.004,-0.008l0.003,0.015l0.044,0.043l0.005,0.022l-0.001,-0.018l-0.004,-0.004l-0.003,-0.015l-0.044,-0.043Zm0.064,0.062l-0.013,-0.013l0,0.013l0.014,0.013l-0.001,-0.013Zm0.009,-0.019l-0.01,-0.01l0.001,0.029l0.01,0.009l-0.001,-0.028Zm-0.002,-0.064l0.002,0.064l0.02,0.02l-0.015,-0.076l-0.007,-0.008Zm0.004,-0.01l0.003,0.018l0.04,0.04l0.005,0.025l-0.001,-0.021l-0.004,-0.004l-0.004,-0.019l-0.039,-0.039Zm0.061,0.061l-0.014,-0.014l0,0.015l0.015,0.015l-0.001,-0.016Zm0.011,-0.016l-0.012,-0.012l0.001,0.028l0.012,0.012l-0.001,-0.028Zm0.007,-0.054l-0.008,-0.008l0.001,0.062l0.02,0.021l-0.013,-0.075Zm-0.004,-0.021l0.004,0.021l0.035,0.037l0.005,0.027l-0,-0.022l-0.005,-0.005l-0.004,-0.022l-0.035,-0.036Zm0.06,0.062l-0.016,-0.017l-0,0.018l0.016,0.017l-0,-0.018Zm0.013,-0.014l-0.014,-0.014l0.001,0.028l0.013,0.013l-0,-0.027Zm0.018,-0.014l-0.018,-0.02l-0,0.034l0.019,0.021l-0.001,-0.035Zm0.025,0.001l-0.025,-0.027l0,0.026l0.025,0.026l0,-0.025Zm0.018,-0.001l-0.018,-0.019l0,0.02l0.018,0.019l-0,-0.02Zm0.015,-0.01l-0.015,-0.017l-0,0.027l0.015,0.015l-0,-0.025Zm0.018,-0.012l-0.018,-0.019l-0,0.031l0.018,0.019l-0,-0.031Zm0.023,-0.003l-0.023,-0.025l-0,0.028l0.022,0.024l0.001,-0.027Zm0.019,-0.002l-0.019,-0.02l-0,0.022l0.019,0.021l0,-0.023Zm0.017,-0.005l-0.017,-0.019l0,0.024l0.016,0.018l0.001,-0.023Zm0.017,-0.01l-0.017,-0.018l-0,0.028l0.016,0.018l0.001,-0.028Zm0.021,-0.007l-0.02,-0.024l-0.001,0.031l0.02,0.022l0.001,-0.029Zm0.021,-0.002l-0.02,-0.023l-0.001,0.025l0.021,0.023l0,-0.025Zm0.019,-0.002l-0.018,-0.021l-0.001,0.023l0.018,0.02l0.001,-0.022Zm0.016,-0.007l-0.015,-0.018l-0.001,0.025l0.015,0.018l0.001,-0.025Zm0.019,-0.012l-0.018,-0.022l-0.001,0.034l0.017,0.02l0.002,-0.032Zm0.023,-0.001l-0.022,-0.026l-0.001,0.027l0.022,0.026l0.001,-0.027Zm0.02,0.002l-0.019,-0.023l-0.001,0.021l0.019,0.022l0.001,-0.02Zm0.015,-0.006l-0.014,-0.016l-0.001,0.022l0.014,0.017l0.001,-0.023Zm0.018,-0.016l-0.017,-0.02l-0.001,0.036l0.016,0.019l0.002,-0.035Zm0.025,-0.001l-0.024,-0.028l-0.001,0.029l0.023,0.029l0.002,-0.03Zm0.022,0.007l-0.021,-0.026l-0.001,0.019l0.02,0.025l0.002,-0.018Zm0.013,-0.005l-0.012,-0.014l-0.001,0.019l0.012,0.015l0.001,-0.02Zm0.006,-0.068l-0.006,0.068l0.014,0.017l-0.008,-0.085Zm-0.002,-0.022l0,0.008l0.002,0.014l0.032,0.041l0.003,0.039l0.003,-0.032l-0.006,-0.007l-0.002,-0.022l-0.032,-0.041Zm0.062,0.081l-0.021,-0.028l-0.001,0.017l0.021,0.027l0.001,-0.016Zm0.012,-0.003l-0.01,-0.014l-0.002,0.017l0.011,0.014l0.001,-0.017Zm0.005,-0.076l-0.005,0.076l0.012,0.014l-0.007,-0.086l0,-0.004Zm0.001,-0.017l-0.001,0.017l0.034,0.044l0.003,0.041l0.003,-0.033l-0.006,-0.008l-0.002,-0.019l-0.031,-0.042Zm0.063,0.084l-0.023,-0.03l-0.001,0.015l0.023,0.029l0.001,-0.014Zm0.01,-0.002l-0.009,-0.012l-0.001,0.014l0.009,0.012l0.001,-0.014Zm0.007,-0.081l-0.003,-0.004l0.001,0.023l-0.005,0.062l0.01,0.013l-0.005,-0.075l0.002,-0.019Zm0.001,-0.015l-0.001,0.015l0.033,0.045l0.003,0.044l0.004,-0.035l-0.007,-0.009l-0.001,-0.016l-0.031,-0.044Zm0.063,0.089l-0.023,-0.033l-0.001,0.013l0.023,0.031l0.001,-0.011Zm0.009,-0.002l-0.007,-0.01l-0.002,0.012l0.008,0.01l0.001,-0.012Zm0.009,-0.099l-0.007,-0.01l-0,0.005l0.003,0.052l-0.005,0.052l0.008,0.011l-0.003,-0.063l0.004,-0.047Zm0.064,0.093l-0.002,-0.014l-0.031,-0.044l-0.009,-0.138l0.009,0.149l0.031,0.045l0.001,0.011l0.001,-0.009Zm0.007,-0.001l-0.006,-0.009l-0.001,0.01l0.006,0.009l0.001,-0.01Zm0.01,-0.102l-0.005,-0.008l-0.002,0.027l0.001,0.041l-0.004,0.042l0.007,0.009l-0.003,-0.051l0.006,-0.06Zm0.066,0.098l-0.002,-0.011l-0.031,-0.045l-0.007,-0.143l0.007,0.15l0.031,0.047l0.001,0.009l0.001,-0.007Zm0.005,-0.001l-0.004,-0.007l-0.001,0.008l0.004,0.006l0.001,-0.007Zm0.008,-0.111l-0.005,0.049l0.001,0.031l-0.004,0.031l0.005,0.007l-0.001,-0.038l0.008,-0.074l-0.004,-0.006Zm0.07,0.108l-0.001,-0.007l-0.031,-0.045l-0.004,-0.135l0.004,0.139l0.031,0.047l-0,0.006l0.001,-0.005Zm0.003,-0l-0.003,-0.004l-0,0.004l0.003,0.005l0,-0.005Zm0.011,-0.105l-0.007,0.055l-0.001,0.024l-0.003,0.026l0.003,0.005l0,-0.031l0.008,-0.079Zm0.003,-0.003l-0.001,0.006l0.04,0.063l0.001,0.042l0.005,-0.033l-0.006,-0.009l0,-0.004l-0.039,-0.065Zm0.066,0.107l-0.02,-0.032l-0.001,0.003l0.021,0.029Zm-0.313,-0.091l-0,0.008l0.031,0.046l-0,-0.011l-0.031,-0.043Zm0.082,-0.007l-0.001,0.005l0.033,0.049l-0,-0.007l-0.032,-0.047Zm0.082,-0.005l0.034,0.056l0,-0.004l-0.034,-0.052Z"/>
    </g>
</svg>
