<svg width="100%" height="100%" viewBox="0 0 63 469" version="1.1" xmlns="http://www.w3.org/2000/svg" xmlns:xlink="http://www.w3.org/1999/xlink" xml:space="preserve" xmlns:serif="http://www.serif.com/" style="fill-rule:evenodd;clip-rule:evenodd;stroke-linejoin:round;stroke-miterlimit:2;">
    <clipPath id="_clip1">
    <rect id="w01.svg" x="0" y="0" width="62.5" height="468.75"/>
    </clipPath>
    <g clip-path="url(#_clip1)">
    <path d="M31.312,0l-28.212,0c-1.711,0 -3.1,1.399 -3.1,3.123l-0,456.007c-0,5.171 4.168,9.37 9.301,9.37l43.402,0c5.133,0 9.301,-4.199 9.301,-9.37l-0,-161.418l-28.459,0c-1.284,0 -2.326,-1.049 -2.326,-2.343l0,-292.031c0,-0.228 0.033,-0.448 0.093,-0.655l-0,-2.683l0,0Z" style="fill:#fff;"/>
    <path d="M31.312,0l-28.212,0c-1.711,0 -3.1,1.399 -3.1,3.123l-0,456.007c-0,5.171 4.168,9.37 9.301,9.37l43.402,0c5.133,0 9.301,-4.199 9.301,-9.37l-0,-161.418l-28.459,0c-1.284,0 -2.326,-1.049 -2.326,-2.343l0,-292.031c0,-0.228 0.033,-0.448 0.093,-0.655l-0,-2.683l0,0Zm-1.029,1.038l-0,1.511c-0.06,0.247 -0.093,0.513 -0.093,0.789l0,292.031c0,1.866 1.503,3.381 3.356,3.381l27.428,-0l0,160.38c0,4.599 -3.705,8.332 -8.27,8.332l-43.402,-0c-4.565,-0 -8.27,-3.733 -8.27,-8.332l-0,-456.007c-0,-1.151 0.926,-2.085 2.069,-2.085l27.182,0Z"/>
    </g>
    <g id="w01.svg1" serif:id="w01.svg">
    </g>
</svg>
