<svg width="100%" height="100%" viewBox="0 0 63 469" version="1.1" xmlns="http://www.w3.org/2000/svg" xmlns:xlink="http://www.w3.org/1999/xlink" xml:space="preserve" xmlns:serif="http://www.serif.com/" style="fill-rule:evenodd;clip-rule:evenodd;stroke-linejoin:round;stroke-miterlimit:2;">
    <path d="M0.832,1.161l12.344,0c1.283,0 2.325,1.049 2.325,2.341l-0,291.823c-0,1.293 -1.042,2.342 -2.325,2.342l-13.176,0l-0,161.303c-0,5.167 4.168,9.363 9.301,9.363l43.402,0c5.133,0 9.301,-4.196 9.301,-9.363l-0,-161.303l-13.176,0c-1.283,0 -2.325,-1.049 -2.325,-2.342l-0,-291.823c-0,-1.292 1.042,-2.341 2.325,-2.341l12.344,0c-0.566,-0.611 -1.373,-0.994 -2.268,-0.994l-55.804,-0c-0.895,-0 -1.702,0.383 -2.268,0.994Z" style="fill:#fff;"/>
    <path d="M0.832,1.161l12.344,0c1.283,0 2.325,1.049 2.325,2.341l-0,291.823c-0,1.293 -1.042,2.342 -2.325,2.342l-13.176,0l-0,161.303c-0,5.167 4.168,9.363 9.301,9.363l43.402,0c5.133,0 9.301,-4.196 9.301,-9.363l-0,-161.303l-13.176,0c-1.283,0 -2.325,-1.049 -2.325,-2.342l-0,-291.823c-0,-1.292 1.042,-2.341 2.325,-2.341l12.344,0c-0.566,-0.611 -1.373,-0.994 -2.268,-0.994l-55.804,-0c-0.895,-0 -1.702,0.383 -2.268,0.994Zm45.538,0.043c-0.557,0.603 -0.897,1.411 -0.897,2.298l0,291.823c0,1.865 1.503,3.38 3.355,3.38l12.146,-0l0,160.265c0,4.596 -3.706,8.326 -8.271,8.326l-43.402,-0c-4.565,-0 -8.271,-3.73 -8.271,-8.326l-0,-160.265l12.146,-0c1.852,-0 3.355,-1.515 3.355,-3.38l-0,-291.823c-0,-0.887 -0.341,-1.695 -0.897,-2.298l30.736,0Z"/>
    <g id="w02.svg">
    </g>
</svg>
