<svg width="100%" height="100%" viewBox="0 0 63 469" version="1.1" xmlns="http://www.w3.org/2000/svg" xmlns:xlink="http://www.w3.org/1999/xlink" xml:space="preserve" xmlns:serif="http://www.serif.com/" style="fill-rule:evenodd;clip-rule:evenodd;stroke-linejoin:round;stroke-miterlimit:2;">
    <clipPath id="_clip1">
    <rect id="w03" x="0" y="0" width="62.5" height="468.75"/>
    </clipPath>
    <g clip-path="url(#_clip1)">
    <path d="M0,297.712l28.459,0c1.284,0 2.326,-1.049 2.326,-2.343l-0,-292.031c-0,-1.293 -1.042,-2.343 -2.326,-2.343l-27.627,0c0.566,-0.612 1.373,-0.995 2.268,-0.995l55.804,0c1.711,0 3.1,1.399 3.1,3.123l-0,456.007c-0,5.171 -4.168,9.37 -9.301,9.37l-43.402,0c-5.133,0 -9.301,-4.199 -9.301,-9.37l-0,-161.418Z" style="fill:#fff;"/>
    <path d="M0,297.712l28.459,0c1.284,0 2.326,-1.049 2.326,-2.343l-0,-292.031c-0,-1.293 -1.042,-2.343 -2.326,-2.343l-27.627,0c0.566,-0.612 1.373,-0.995 2.268,-0.995l55.804,0c1.711,0 3.1,1.399 3.1,3.123l-0,456.007c-0,5.171 -4.168,9.37 -9.301,9.37l-43.402,0c-5.133,0 -9.301,-4.199 -9.301,-9.37l-0,-161.418Zm30.918,-296.674l27.986,0c1.143,0 2.069,0.934 2.069,2.085l0,456.007c0,4.599 -3.705,8.332 -8.27,8.332l-43.402,-0c-4.565,-0 -8.27,-3.733 -8.27,-8.332l-0,-160.38l27.428,-0c1.853,-0 3.355,-1.515 3.355,-3.381l0,-292.031c0,-0.888 -0.34,-1.697 -0.896,-2.3Z"/>
    </g>
    <g id="w031" serif:id="w03">
    </g>
</svg>
