<svg width="100%" height="100%" viewBox="0 0 63 469" version="1.1" xmlns="http://www.w3.org/2000/svg" xmlns:xlink="http://www.w3.org/1999/xlink" xml:space="preserve" xmlns:serif="http://www.serif.com/" style="fill-rule:evenodd;clip-rule:evenodd;stroke-linejoin:round;stroke-miterlimit:2;">
<path id="w04" d="M62.5,3.125c0,-1.725 -1.4,-3.125 -3.125,-3.125l-56.25,0c-1.725,0 -3.125,1.4 -3.125,3.125l0,456.25c0,5.174 4.201,9.375 9.375,9.375l43.75,0c5.174,0 9.375,-4.201 9.375,-9.375l0,-456.25Z" style="fill:#ebebeb;"/>
<path d="M62.5,3.125c0,-1.725 -1.4,-3.125 -3.125,-3.125l-56.25,-0c-1.725,-0 -3.125,1.4 -3.125,3.125l-0,456.25c-0,5.174 4.201,9.375 9.375,9.375l43.75,0c5.174,0 9.375,-4.201 9.375,-9.375l0,-456.25Zm-1.042,-0l0,456.25c0,4.599 -3.734,8.333 -8.333,8.333c-0,0 -43.75,0 -43.75,0c-4.599,0 -8.333,-3.734 -8.333,-8.333l-0,-456.25c-0,-1.15 0.933,-2.083 2.083,-2.083l56.25,-0c1.15,-0 2.083,0.933 2.083,2.083Z"/>
</svg>
